Motion_pl12
version=1
nRows=6
nColumns=43
inDegrees=yes
endheader
time	pelvis_tilt	pelvis_list	pelvis_rotation	pelvis_tx	pelvis_ty	pelvis_tz	hip_flexion_r	hip_adduction_r	hip_rotation_r	knee_angle_r	ankle_angle_r	subtalar_angle_r	mtp_angle_r	hip_flexion_l	hip_adduction_l	hip_rotation_l	knee_angle_l	ankle_angle_l	subtalar_angle_l	mtp_angle_l	lumbar_extension	lumbar_bending	lumbar_rotation	neck_flexion	neck_lateral_bending	neck_rotation	arm_flex_r	arm_add_r	arm_rot_r	elbow_flex_r	pro_sup_r	wrist_flex_r	wrist_dev_r	hand_finger_flex_r	arm_flex_l	arm_add_l	arm_rot_l	elbow_flex_l	pro_sup_l	wrist_flex_l	wrist_dev_l	hand_finger_flex_l
      0.00250000	      2.54846777	     -9.45689618	     88.15251336	      0.07492479	      1.75094708	      1.78383152	     74.13463075	     -1.59469643	      1.66507087	   -150.75965090	     22.56804436	     10.18705557	     22.64306611	     73.73495911	     -8.90372928	     16.32599463	   -150.40153735	     19.89105698	     24.27178540	     30.97229521	    -45.01579317	      0.31661360	      3.37135882	     29.97343779	      1.43432757	     -1.88554773	     32.42340528	    -23.29863259	     -7.78176474	     95.13718021	    104.45124978	     -3.12112130	     -7.61684745	     -4.63540251	     53.59361782	    -26.29309944	     10.42624601	     62.42320898	    118.89205238	    -13.84952160	      0.11866118	      1.44206733
      0.00500000	      2.63109351	     -9.74796426	     87.99484116	      0.07466660	      1.75144669	      1.78108382	     73.98923774	     -1.43352837	      1.72333678	   -150.54756058	     22.44725861	     10.31288098	     22.64875501	     73.62010765	     -9.00297083	     16.29523669	   -150.27745860	     19.49051185	     24.42894048	     31.07639935	    -44.65410124	      0.36755895	      3.47670211	     30.02765719	      1.40817059	     -1.89344465	     33.48185198	    -23.57864079	     -7.30461188	     95.27955207	    104.77240680	     -3.14304673	     -7.82379957	     -4.65245868	     54.29629182	    -26.58904625	     10.85007604	     62.62190079	    118.74958500	    -13.86232667	     -0.04774165	      1.44602683
      0.00750000	      2.73006260	    -10.00731274	     87.78995634	      0.07450607	      1.75194956	      1.77835132	     73.80560517	     -1.21935172	      1.77300862	   -150.34229449	     22.43508906	     10.41144248	     22.72572245	     73.47665445	     -9.17063288	     16.34551669	   -150.15411761	     18.99641409	     24.78889271	     31.27165347	    -44.30824726	      0.39734949	      3.61089877	     30.04243582	      1.41908373	     -1.76626889	     34.65769981	    -23.80845212	     -6.78343001	     95.32196068	    104.98992036	     -3.16777260	     -7.83427285	     -4.67535093	     55.08119036	    -26.90448287	     11.42046409	     62.71586329	    118.56140383	    -14.03774218	     -0.10193991	      1.34625880
      0.01000000	      2.81773868	    -10.28621915	     87.62443555	      0.07435879	      1.75242586	      1.77556674	     73.63260307	     -1.02275239	      1.79107588	   -150.14160038	     22.37708364	     10.48497994	     22.80902498	     73.36750609	     -9.29856570	     16.35773927	   -150.02699438	     18.57071220	     25.06816903	     31.44215388	    -43.94619647	      0.43953434	      3.73362691	     30.07997919	      1.41424960	     -1.70099488	     35.77009763	    -24.10817963	     -6.25620545	     95.46813831	    105.11007956	     -3.11084438	     -7.80865223	     -4.67191755	     55.87514384	    -27.12439276	     11.87509709	     62.79880665	    118.47411898	    -14.15565038	     -0.12217658	      1.25363977
      0.01250000	      2.88474502	    -10.62541754	     87.50665086	      0.07402005	      1.75289680	      1.77271576	     73.51288124	     -0.92822537	      1.84144949	   -149.93053779	     22.32658845	     10.51472865	     22.84354553	     73.28941990	     -9.33835283	     16.30200927	   -149.88005945	     18.31619714	     25.18904003	     31.49616595	    -43.52330844	      0.49642303	      3.86818889	     30.27605934	      1.46373740	     -1.69107229	     36.85491490	    -24.30313436	     -5.90849046	     95.55217783	    105.18351936	     -3.03385236	     -7.78534973	     -4.66003844	     56.65362953	    -27.07425307	     12.05532621	     62.81971761	    118.48432047	    -14.17266740	     -0.11421380	      1.21294400
      0.01500000	      3.07866074	    -10.75205910	     87.28084530	      0.07398315	      1.75369004	      1.76968841	     73.12416297	     -0.62531754	      1.81360315	   -149.67053444	     22.25232879	     10.69657728	     23.36907883	     72.99140742	     -9.62086919	     16.49830045	   -149.71129838	     17.68667567	     25.74331405	     32.43045350	    -43.30669246	      0.60742128	      4.04307168	     30.15209959	      1.40600316	     -1.40561056	     38.15238287	    -24.57888882	     -5.13004113	     95.60341384	    105.41481789	     -3.25444974	     -7.51799254	     -4.85230166	     57.41352558	    -27.45169317	     12.76620489	     62.93317870	    118.25650466	    -14.79595381	      0.00274058	      0.71103005
